{"glyphs":{":":{"x_min":0,"x_max":193,"ha":193,"o":"m 69 83 l 69 190 l 147 190 l 147 83 z m 69 423 l 69 530 l 147 530 l 147 423 z"},"$":{"x_min":0,"x_max":466,"ha":466,"o":"m 238 -87 l 238 -10 q 144 -8 96 50 q 48 107 41 210 l 108 229 q 112 197 117 173 q 122 148 132 124 q 142 101 156 85 q 171 70 193 61 q 215 52 244 52 q 358 52 358 169 q 358 195 352 218 q 345 240 331 262 q 316 284 301 301 q 285 319 259 344 l 116 481 q 42 552 42 645 q 42 724 88 769 q 134 814 214 818 l 214 902 l 246 902 l 246 818 q 326 813 369 765 q 412 716 419 613 l 354 596 q 348 678 319 719 q 292 758 231 758 q 229 758 226 758 q 172 757 142 730 q 111 704 111 651 q 111 618 124 591 q 137 563 168 533 l 311 398 q 366 345 398 291 q 430 237 430 174 q 430 93 386 46 q 342 -1 269 -9 l 269 -87 z"},"?":{"x_min":0,"x_max":474,"ha":474,"o":"m 173 201 l 173 325 q 266 392 311 460 q 356 528 356 610 q 356 680 321 718 q 287 756 235 756 q 178 756 148 724 q 127 701 127 666 q 127 652 131 636 l 138 601 l 71 586 l 63 622 q 57 648 57 672 q 57 729 93 767 q 144 820 235 820 q 321 820 374 765 q 427 711 427 609 q 427 561 414 519 q 401 478 375 440 q 349 403 317 373 q 285 342 238 305 l 238 201 z m 170 0 l 170 87 l 243 87 l 243 0 z"},"<":{"x_min":0,"x_max":363,"ha":363,"o":"m 306 62 l 29 266 l 29 338 l 306 548 l 306 472 l 85 302 l 306 137 z"},"'":{"x_min":0,"x_max":286,"ha":286,"o":"m 82 573 l 82 810 l 152 810 l 122 573 z"},"=":{"x_min":0,"x_max":400,"ha":400,"o":"m 51 285 l 51 343 l 350 343 l 350 285 z m 51 453 l 51 511 l 350 511 l 350 453 z"},"a":{"x_min":0,"x_max":397,"ha":397,"o":"m 156 -9 q 105 -9 72 28 q 40 65 40 121 q 40 149 44 172 q 49 195 63 215 q 76 235 92 250 q 108 266 137 283 q 167 300 196 315 q 225 330 272 351 l 272 392 q 272 472 257 502 q 242 532 201 532 q 121 532 121 433 l 121 412 l 48 414 q 48 428 49 432 q 52 513 91 550 q 130 587 205 587 q 281 587 313 542 q 346 496 346 396 l 346 115 q 346 45 351 0 l 286 0 l 275 80 q 262 42 231 16 q 199 -9 156 -9 z m 180 54 q 209 54 234 74 q 258 94 272 122 l 272 302 q 270 301 263 297 q 239 285 227 278 q 214 271 196 261 q 178 250 169 244 q 161 237 149 227 q 138 217 133 209 q 127 200 122 189 q 117 178 115 165 q 113 153 113 138 q 113 95 132 74 q 151 54 180 54 z"},"L":{"x_min":0,"x_max":382,"ha":382,"o":"m 70 0 l 70 810 l 147 810 l 147 57 l 377 57 l 377 0 z"},"3":{"x_min":0,"x_max":479,"ha":479,"o":"m 238 -10 q 147 -10 102 42 q 58 94 58 187 l 58 207 l 129 207 l 129 190 q 130 122 155 86 q 180 50 238 50 q 297 50 326 90 q 356 130 356 220 q 356 388 235 392 q 234 392 225 392 q 216 393 215 393 l 215 461 l 234 461 q 300 462 328 499 q 356 535 356 616 q 356 684 331 721 q 306 759 246 759 q 185 759 157 725 q 130 691 129 618 l 129 604 l 58 604 l 58 623 q 58 716 103 767 q 148 818 246 818 q 337 818 384 764 q 431 709 431 616 q 431 534 399 486 q 368 438 315 426 q 365 413 398 362 q 431 311 431 221 q 431 113 384 51 q 337 -10 238 -10 z"},";":{"x_min":0,"x_max":208,"ha":208,"o":"m 79 -28 l 64 4 q 92 16 102 32 q 112 48 112 79 l 69 79 l 69 182 l 150 182 l 150 87 q 150 36 134 10 q 119 -17 79 -28 z m 69 441 l 69 550 l 146 550 l 146 441 z"},"J":{"x_min":0,"x_max":279,"ha":279,"o":"m 8 -36 l 8 22 q 37 22 55 24 q 74 26 89 32 q 104 39 111 48 q 119 57 124 74 q 129 91 130 111 q 131 131 131 163 l 131 810 l 208 810 l 208 158 q 208 116 204 87 q 200 58 190 33 q 180 8 162 -6 q 144 -20 115 -28 q 86 -36 45 -36 z"},"V":{"x_min":0,"x_max":490,"ha":490,"o":"m 214 0 l 24 810 l 97 810 l 250 140 l 394 810 l 466 810 l 283 0 z"},"\"":{"x_min":0,"x_max":356,"ha":356,"o":"m 82 573 l 82 810 l 152 810 l 122 573 z m 220 573 l 220 810 l 290 810 l 260 573 z"},"7":{"x_min":0,"x_max":433,"ha":433,"o":"m 145 0 l 303 751 l 58 751 l 58 810 l 377 810 l 377 774 l 216 0 z"},"S":{"x_min":0,"x_max":460,"ha":460,"o":"m 244 -10 q 147 -10 98 48 q 48 106 41 210 l 108 229 q 112 197 117 173 q 122 148 132 124 q 142 101 156 85 q 171 70 193 61 q 215 52 244 52 q 358 52 358 169 q 358 195 352 218 q 345 240 331 262 q 316 284 301 301 q 285 319 259 344 l 116 481 q 42 552 42 645 q 42 727 92 772 q 141 818 225 818 q 227 818 228 818 q 316 818 363 771 q 411 722 419 613 l 354 596 q 348 678 319 719 q 292 758 231 758 q 229 758 226 758 q 172 757 142 730 q 111 704 111 651 q 111 618 124 591 q 137 563 168 533 l 311 398 q 366 345 398 291 q 430 237 430 174 q 430 86 379 38 q 328 -10 244 -10 z"},"}":{"x_min":0,"x_max":270,"ha":270,"o":"m 31 -165 l 31 -110 q 81 -110 89 -89 q 98 -68 98 37 l 98 182 q 98 231 105 262 q 111 292 124 308 q 136 323 157 329 q 136 334 124 350 q 111 365 105 395 q 98 426 98 476 l 98 616 q 98 721 89 742 q 81 763 31 763 l 31 817 q 53 817 68 817 q 83 816 98 813 q 112 811 122 808 q 131 805 139 797 q 148 790 153 783 q 158 777 162 763 q 166 750 168 738 q 170 726 171 705 q 172 684 173 665 q 173 646 173 616 l 173 491 q 173 448 175 424 q 177 399 184 384 q 190 368 201 362 q 212 357 231 357 l 231 300 q 212 300 201 295 q 190 290 184 274 q 177 258 175 233 q 173 209 173 166 l 173 37 q 173 7 173 -12 q 172 -31 171 -52 q 170 -74 168 -86 q 166 -98 162 -111 q 158 -125 153 -131 q 148 -138 139 -145 q 131 -152 122 -155 q 112 -158 98 -161 q 83 -164 68 -164 q 53 -165 31 -165 z"},"Z":{"x_min":0,"x_max":407,"ha":407,"o":"m 34 0 l 34 58 l 305 752 l 56 752 l 56 810 l 387 810 l 387 770 l 109 57 l 388 57 l 388 0 z"},"x":{"x_min":0,"x_max":380,"ha":380,"o":"m 16 0 l 153 302 l 22 578 l 95 578 l 194 366 l 289 578 l 363 578 l 228 294 l 365 0 l 295 0 l 188 228 l 87 0 z"},")":{"x_min":0,"x_max":257,"ha":257,"o":"m 30 -165 l 30 -114 q 54 -112 72 -96 q 89 -81 99 -47 q 110 -12 116 19 q 123 49 125 109 q 127 168 128 205 q 128 242 128 316 q 128 323 128 326 q 128 328 128 330 q 128 332 128 333 q 128 334 128 336 q 128 411 128 448 q 127 484 125 544 q 123 603 116 633 q 110 664 99 698 q 89 732 72 748 q 54 763 30 765 l 30 816 q 61 815 85 805 q 110 795 127 773 q 145 751 157 728 q 170 706 177 666 q 185 626 190 595 q 195 564 197 511 q 199 458 199 423 q 200 387 200 326 q 200 256 199 217 q 199 177 195 118 q 192 60 186 26 q 179 -8 167 -48 q 154 -88 137 -110 q 119 -131 92 -147 q 65 -163 30 -165 z"},"&":{"x_min":0,"x_max":604,"ha":604,"o":"m 244 -10 q 155 -10 106 42 q 57 94 57 174 q 57 236 88 293 q 119 350 187 416 q 183 421 177 432 q 131 509 111 554 q 92 599 92 647 q 92 728 138 773 q 184 818 263 818 q 339 818 384 780 q 429 741 429 674 q 429 611 385 546 q 340 482 260 410 l 416 164 q 441 200 459 257 q 477 313 479 359 l 550 359 q 550 304 524 235 q 499 165 459 117 q 500 65 552 65 l 552 -7 q 542 -7 533 -5 q 475 -1 416 69 q 386 34 342 12 q 297 -10 244 -10 z m 244 51 q 313 51 374 117 l 216 363 q 171 313 151 267 q 131 222 131 174 q 131 151 137 130 q 143 109 155 91 q 168 73 191 62 q 213 51 244 51 z m 233 452 q 357 575 357 675 q 357 714 332 736 q 306 758 262 758 q 214 758 189 727 q 165 696 165 648 q 165 605 181 561 q 197 518 233 452 z"},"_":{"x_min":0,"x_max":333,"ha":333,"o":"m 0 -106 l 0 -49 l 333 -49 l 333 -106 z"},"v":{"x_min":0,"x_max":368,"ha":368,"o":"m 144 0 l 18 578 l 92 578 l 186 84 l 279 578 l 350 578 l 230 0 z"},"O":{"x_min":0,"x_max":524,"ha":524,"o":"m 393 223 l 393 589 q 393 630 387 659 q 382 688 368 711 q 354 735 328 746 q 301 758 262 758 q 223 758 197 746 q 170 735 156 711 q 143 688 137 659 q 131 630 131 589 l 131 223 q 131 182 137 152 q 143 123 156 99 q 170 75 197 63 q 223 51 262 51 q 301 51 328 63 q 354 75 368 99 q 382 123 387 152 q 393 182 393 223 z m 262 -10 q 204 -10 162 8 q 121 25 98 60 q 75 94 64 138 q 54 182 54 239 l 54 575 q 54 632 65 675 q 75 718 99 751 q 123 784 164 801 q 205 818 262 818 q 320 818 361 801 q 402 784 426 751 q 449 718 460 675 q 470 632 470 575 l 470 238 q 470 193 464 156 q 458 120 443 88 q 428 56 405 35 q 381 14 345 2 q 309 -10 262 -10 z"},"(":{"x_min":0,"x_max":278,"ha":278,"o":"m 248 -165 q 217 -163 193 -153 q 168 -142 151 -120 q 134 -98 121 -75 q 108 -52 101 -13 q 93 27 88 58 q 83 89 82 141 q 80 194 79 229 q 79 265 79 325 q 79 386 79 422 q 80 458 82 510 q 83 563 88 595 q 93 626 101 666 q 108 705 121 728 q 134 751 151 773 q 168 795 193 805 q 217 815 248 816 l 248 765 q 224 762 206 747 q 189 731 179 697 q 168 663 162 632 q 156 602 153 542 q 151 483 150 446 q 150 409 150 335 q 150 329 150 325 q 150 321 150 312 q 150 238 150 201 q 151 165 153 105 q 156 46 162 16 q 168 -14 179 -48 q 189 -82 206 -97 q 224 -112 248 -114 z"},"C":{"x_min":0,"x_max":499,"ha":499,"o":"m 259 -10 q 211 -10 175 3 q 139 16 116 38 q 93 60 79 93 q 65 126 60 163 q 54 199 54 244 l 54 565 q 54 612 60 649 q 65 686 80 719 q 94 751 117 772 q 140 794 176 806 q 212 818 259 818 q 312 818 350 802 q 388 787 410 756 q 432 725 441 684 q 451 643 451 588 l 451 539 l 379 539 l 379 586 q 379 629 375 658 q 370 687 358 711 q 345 735 321 746 q 297 758 260 758 q 220 758 194 745 q 167 732 154 707 q 141 681 136 650 q 131 620 131 575 l 131 231 q 131 137 159 94 q 188 51 260 51 q 290 51 311 60 q 333 68 345 83 q 358 97 366 120 q 374 143 376 168 q 379 192 379 227 l 379 279 l 451 279 l 451 232 q 451 188 446 152 q 440 117 427 85 q 414 54 392 34 q 371 13 337 1 q 304 -10 259 -10 z"},"W":{"x_min":0,"x_max":715,"ha":715,"o":"m 172 0 l 35 809 l 100 810 l 207 152 l 329 797 l 392 797 l 517 151 l 616 810 l 680 810 l 549 0 l 490 0 l 361 668 l 234 0 z"},"A":{"x_min":0,"x_max":477,"ha":477,"o":"m 27 0 l 198 810 l 278 810 l 450 0 l 375 0 l 335 216 l 142 216 l 101 0 z m 153 272 l 325 272 l 239 708 z"},"f":{"x_min":0,"x_max":268,"ha":268,"o":"m 93 0 l 93 525 l 18 525 l 18 578 l 93 578 l 93 638 q 93 662 94 679 q 95 696 99 714 q 103 732 110 744 q 117 756 128 766 q 140 776 157 781 q 175 785 198 785 q 225 785 257 779 l 257 724 q 223 729 216 729 q 185 729 175 710 q 166 691 166 646 l 166 578 l 259 578 l 259 525 l 166 525 l 166 0 z"},"Q":{"x_min":0,"x_max":530,"ha":530,"o":"m 432 -159 q 376 -132 290 -9 q 277 -10 265 -10 q 206 -10 164 8 q 123 25 99 60 q 75 94 65 138 q 54 182 54 239 l 54 575 q 54 632 65 675 q 76 719 100 751 q 125 784 166 801 q 207 818 265 818 q 322 818 364 801 q 405 784 429 751 q 453 718 464 675 q 475 632 475 575 l 475 238 q 475 193 469 156 q 462 120 448 89 q 433 58 408 36 q 383 14 348 3 q 370 -25 396 -54 q 423 -83 441 -95 z m 398 223 l 398 589 q 398 630 392 659 q 386 688 372 711 q 357 735 330 746 q 304 758 265 758 q 226 758 199 746 q 172 735 158 711 q 143 688 137 659 q 131 630 131 589 l 131 223 q 131 182 137 152 q 143 123 158 99 q 172 75 199 63 q 226 51 265 51 q 304 51 330 63 q 357 75 372 99 q 386 123 392 152 q 398 182 398 223 z"},"w":{"x_min":0,"x_max":575,"ha":575,"o":"m 125 0 l 31 578 l 94 578 l 166 95 l 257 578 l 320 578 l 412 97 l 481 578 l 543 578 l 450 0 l 381 0 l 290 470 l 199 0 z"},"-":{"x_min":0,"x_max":298,"ha":298,"o":"m 42 297 l 42 355 l 255 355 l 255 297 z"},"E":{"x_min":0,"x_max":398,"ha":398,"o":"m 70 0 l 70 810 l 363 810 l 363 751 l 147 751 l 147 448 l 324 448 l 324 391 l 147 391 l 147 57 l 365 57 l 365 0 z"},"s":{"x_min":0,"x_max":363,"ha":363,"o":"m 188 -9 q 119 -9 78 35 q 37 80 31 155 l 92 174 q 98 108 123 77 q 147 46 191 46 q 229 46 251 68 q 272 90 272 126 q 272 127 272 129 q 271 187 202 245 l 123 312 q 82 346 62 379 q 44 412 44 455 q 44 518 82 553 q 119 587 182 587 q 246 587 281 546 q 315 505 319 435 l 267 418 q 264 476 243 504 q 223 532 185 532 q 151 532 130 513 q 110 495 110 463 q 110 435 121 415 q 131 395 158 371 l 240 298 q 262 279 276 264 q 290 250 305 229 q 321 208 328 183 q 336 158 336 130 q 336 63 296 27 q 256 -9 188 -9 z"},">":{"x_min":0,"x_max":363,"ha":363,"o":"m 58 62 l 58 137 l 278 308 l 58 472 l 58 548 l 335 343 l 335 271 z"},"l":{"x_min":0,"x_max":202,"ha":202,"o":"m 66 0 l 66 810 l 140 810 l 140 0 z"},"8":{"x_min":0,"x_max":485,"ha":485,"o":"m 52 217 q 52 258 60 291 q 67 323 77 344 q 87 364 104 381 q 122 398 135 407 q 148 416 168 425 q 61 470 61 615 q 61 709 104 764 q 148 818 243 818 q 337 818 381 763 q 425 708 425 613 q 425 470 316 425 q 336 415 350 406 q 363 398 381 381 q 398 363 408 343 q 418 323 426 290 q 433 258 433 217 q 433 -10 243 -10 q 52 -10 52 217 z m 361 217 q 361 381 243 391 q 124 381 124 217 q 124 131 153 90 q 183 49 243 49 q 303 49 332 90 q 361 131 361 217 z m 243 458 q 353 463 353 616 q 353 759 243 759 q 133 759 133 616 q 133 463 243 458 z"},"\\":{"x_min":0,"x_max":344,"ha":344,"o":"m 255 0 l 24 810 l 89 810 l 319 0 z"},"e":{"x_min":0,"x_max":395,"ha":395,"o":"m 201 -9 q 118 -9 82 42 q 45 93 45 217 l 45 363 q 45 448 62 497 q 80 547 113 567 q 146 587 202 587 q 238 587 264 577 q 290 568 307 550 q 324 533 334 503 q 344 473 348 436 q 352 400 352 349 l 352 296 l 118 296 l 118 210 q 118 120 135 83 q 153 46 201 46 q 239 46 259 70 q 280 94 280 158 l 280 198 l 352 198 l 352 166 q 352 82 316 36 q 281 -9 201 -9 z m 118 338 l 280 338 l 280 386 q 280 417 278 437 q 277 457 272 476 q 268 496 259 507 q 251 519 236 525 q 222 532 201 532 q 155 532 136 500 q 118 468 118 377 z"},"b":{"x_min":0,"x_max":416,"ha":416,"o":"m 233 -9 q 176 -9 130 46 l 130 0 l 57 0 l 57 810 l 130 810 l 130 530 q 176 587 240 587 q 272 587 297 574 q 321 561 335 540 q 349 519 357 487 q 366 456 368 426 q 371 395 371 356 l 371 234 q 371 188 367 152 q 363 116 354 85 q 344 54 328 34 q 312 14 289 2 q 265 -9 233 -9 z m 221 49 q 267 49 282 92 q 298 135 298 233 l 298 356 q 298 449 282 489 q 267 529 220 529 q 175 529 130 485 l 130 91 q 170 49 221 49 z"},"%":{"x_min":0,"x_max":732,"ha":732,"o":"m 163 460 q 194 460 206 485 q 219 510 219 556 l 219 675 q 219 720 207 744 q 194 768 163 768 q 131 768 119 744 q 107 719 107 674 l 107 556 q 107 510 119 485 q 132 460 163 460 z m 40 559 l 40 671 q 40 746 69 785 q 98 825 163 825 q 228 825 256 786 q 285 748 285 674 l 285 558 q 285 404 163 404 q 40 404 40 559 z m 625 147 l 625 266 q 625 311 613 335 q 601 359 569 359 q 538 359 526 334 q 514 310 514 265 l 514 146 q 514 101 526 75 q 538 50 569 50 q 601 50 613 76 q 625 101 625 147 z m 447 150 l 447 262 q 447 336 476 376 q 504 416 569 416 q 634 416 663 377 q 692 338 692 265 l 692 148 q 692 -6 569 -6 q 447 -6 447 150 z m 206 0 l 462 817 l 527 817 l 271 0 z"},"m":{"x_min":0,"x_max":644,"ha":644,"o":"m 56 0 l 56 578 l 125 578 l 125 520 q 183 588 261 588 q 333 588 352 512 q 412 588 494 588 q 537 588 565 557 q 592 526 592 456 l 592 0 l 523 0 l 523 454 q 523 501 508 520 q 494 539 466 539 q 411 538 357 479 q 358 464 358 456 l 358 0 l 290 0 l 290 454 q 290 501 275 520 q 260 539 232 539 q 177 538 125 479 l 125 0 z"},"#":{"x_min":0,"x_max":465,"ha":465,"o":"m 53 0 l 97 292 l 41 292 l 41 346 l 105 346 l 128 487 l 54 487 l 54 542 l 136 542 l 178 810 l 249 810 l 208 542 l 307 542 l 348 810 l 419 810 l 378 542 l 429 542 l 429 487 l 370 487 l 347 346 l 417 346 l 417 292 l 339 292 l 294 0 l 223 0 l 268 292 l 169 292 l 124 0 z m 177 346 l 276 346 l 298 487 l 200 487 z"},",":{"x_min":0,"x_max":181,"ha":181,"o":"m 64 -117 l 49 -84 q 75 -70 86 -50 q 97 -31 97 0 l 53 0 l 53 109 l 135 109 l 135 8 q 135 -41 119 -69 q 103 -97 64 -117 z"},"n":{"x_min":0,"x_max":409,"ha":409,"o":"m 56 0 l 56 578 l 129 578 l 129 518 q 193 587 268 587 q 311 587 334 555 q 357 523 357 464 l 357 0 l 284 0 l 284 448 q 284 492 270 511 q 257 529 229 529 q 181 529 129 476 l 129 0 z"},"h":{"x_min":0,"x_max":412,"ha":412,"o":"m 57 0 l 57 810 l 130 810 l 130 517 q 195 587 271 587 q 314 587 337 555 q 360 523 360 464 l 360 0 l 286 0 l 286 448 q 286 492 273 511 q 260 529 231 529 q 184 529 130 476 l 130 0 z"},"z":{"x_min":0,"x_max":333,"ha":333,"o":"m 32 0 l 32 51 l 229 522 l 53 522 l 53 578 l 306 578 l 306 535 l 110 56 l 302 56 l 302 0 z"},"B":{"x_min":0,"x_max":501,"ha":501,"o":"m 70 0 l 70 810 l 244 810 q 350 810 396 757 q 443 705 443 608 q 443 566 434 532 q 425 498 401 471 q 377 444 340 437 q 374 427 399 407 q 423 386 437 358 q 450 330 456 300 q 462 270 462 234 q 462 193 457 160 q 452 127 438 96 q 425 66 404 45 q 383 24 349 12 q 315 0 271 0 z m 147 57 l 257 57 q 333 57 360 98 q 388 139 388 234 q 388 402 258 402 l 147 402 z m 147 461 l 257 461 q 322 461 348 499 q 374 536 374 608 q 374 685 341 718 q 308 751 220 751 l 147 751 z"},"K":{"x_min":0,"x_max":473,"ha":473,"o":"m 70 0 l 70 810 l 147 810 l 147 383 l 363 810 l 437 810 l 269 462 l 472 0 l 396 0 l 212 422 l 147 301 l 147 0 z"},"R":{"x_min":0,"x_max":512,"ha":512,"o":"m 70 0 l 70 810 l 254 810 q 362 810 409 758 q 455 706 455 605 q 455 438 342 414 l 468 0 l 393 0 l 274 398 l 147 398 l 147 0 z m 147 454 l 250 454 q 323 454 352 490 q 381 526 381 605 q 381 683 354 718 q 326 752 252 752 l 147 752 z"},"T":{"x_min":0,"x_max":388,"ha":388,"o":"m 158 0 l 158 751 l -5 751 l -5 810 l 393 810 l 393 751 l 234 751 l 234 0 z"},"P":{"x_min":0,"x_max":483,"ha":483,"o":"m 70 0 l 70 810 l 265 810 q 318 810 356 794 q 394 779 416 750 q 438 721 448 683 q 458 645 458 595 q 458 550 447 513 q 437 476 414 446 q 392 417 354 400 q 316 383 266 383 l 147 383 l 147 0 z m 147 440 l 244 440 q 319 440 351 474 q 383 509 383 595 q 383 688 354 720 q 326 753 245 753 l 147 753 z"},"|":{"x_min":0,"x_max":217,"ha":217,"o":"m 74 -144 l 75 810 l 143 810 l 143 -144 z"},"t":{"x_min":0,"x_max":280,"ha":280,"o":"m 193 -7 q 134 -7 111 25 q 89 58 88 120 l 88 529 l 19 529 l 19 578 l 88 578 l 88 757 l 162 757 l 162 578 l 258 578 l 258 529 l 162 529 l 162 127 q 162 83 172 67 q 182 50 213 50 q 233 50 254 54 l 254 -1 q 222 -7 193 -7 z"},"M":{"x_min":0,"x_max":643,"ha":643,"o":"m 63 0 l 84 810 l 159 810 l 320 107 l 482 810 l 559 810 l 579 0 l 516 0 l 500 646 l 345 0 l 296 0 l 144 644 l 128 0 z"},"g":{"x_min":0,"x_max":431,"ha":431,"o":"m 214 -190 q 168 -190 134 -185 q 99 -180 72 -169 q 45 -158 31 -138 q 17 -119 17 -92 q 17 -50 44 -15 q 72 20 112 41 q 86 48 67 62 q 48 76 48 92 q 48 138 117 208 q 44 261 44 385 q 44 427 54 463 q 64 499 83 527 q 103 555 134 571 q 165 587 206 587 q 293 587 330 515 q 339 531 361 550 q 383 569 408 580 l 423 586 l 443 535 q 419 529 389 514 q 360 499 348 484 q 355 467 361 436 q 366 404 366 383 q 366 290 328 236 q 290 181 207 181 q 193 181 174 184 q 155 188 148 190 q 146 188 137 174 q 127 160 123 152 q 118 145 113 134 q 108 123 108 115 q 108 101 157 93 q 167 90 206 85 q 244 79 250 78 q 321 65 357 33 q 394 1 394 -56 q 394 -125 346 -157 q 297 -190 214 -190 z m 213 -131 q 270 -131 303 -113 q 336 -95 336 -58 q 336 -26 313 -8 q 291 9 227 21 l 153 31 q 80 -15 80 -68 q 80 -102 111 -116 q 142 -131 213 -131 z m 207 234 q 231 234 249 243 q 267 252 277 267 q 287 281 292 302 q 298 323 300 342 q 302 361 302 385 q 302 535 207 535 q 184 535 166 525 q 148 516 138 501 q 127 486 121 466 q 114 445 112 426 q 110 407 110 385 q 110 234 207 234 z"},"j":{"x_min":0,"x_max":213,"ha":213,"o":"m -17 -148 l -17 -92 q -12 -94 8 -94 q 26 -94 39 -89 q 52 -85 59 -78 q 66 -71 70 -60 q 74 -49 75 -38 q 77 -28 77 -14 l 77 578 l 150 578 l 150 -20 q 150 -87 117 -119 q 83 -151 22 -151 q -8 -151 -17 -148 z m 77 658 l 77 757 l 150 757 l 150 658 z"},"i":{"x_min":0,"x_max":204,"ha":204,"o":"m 64 0 l 64 578 l 137 578 l 137 0 z m 64 658 l 64 757 l 138 757 l 138 658 z"},"y":{"x_min":0,"x_max":381,"ha":381,"o":"m 40 -144 l 40 -87 q 93 -87 119 -79 q 146 -70 152 -55 q 157 -45 157 -30 q 157 -21 156 -11 q 153 7 139 69 q 127 117 75 342 q 22 566 20 578 l 93 578 l 193 86 l 290 578 l 364 578 l 224 -42 q 211 -97 172 -120 q 133 -144 59 -144 z"},"@":{"x_min":0,"x_max":843,"ha":843,"o":"m 453 -112 q 386 -112 329 -99 q 272 -85 221 -54 q 171 -23 135 25 q 100 74 79 147 q 59 220 59 313 q 59 413 79 495 q 100 577 136 634 q 172 692 223 731 q 274 771 334 790 q 395 809 463 809 q 465 809 466 809 q 553 809 618 781 q 685 753 726 700 q 766 647 785 573 q 802 509 802 430 q 802 417 801 405 q 799 346 786 297 q 772 248 751 215 q 730 183 704 160 q 677 138 649 128 q 621 119 592 119 q 556 119 529 144 q 505 167 505 206 q 505 208 505 211 q 491 171 463 144 q 436 117 395 116 q 391 116 387 116 q 328 116 293 160 q 255 208 255 291 q 255 375 287 448 q 319 521 372 563 q 425 605 486 605 q 523 605 556 580 l 565 599 l 619 599 l 569 251 q 566 221 566 205 q 566 187 574 176 q 583 165 603 165 q 621 165 639 173 q 658 181 676 199 q 694 217 709 244 q 723 271 733 311 q 743 351 744 400 q 745 416 745 432 q 744 587 678 666 q 605 752 463 752 q 462 752 460 752 q 388 751 327 721 q 266 692 221 637 q 176 582 151 500 q 126 417 126 315 q 126 229 146 163 q 165 96 195 56 q 226 15 271 -10 q 315 -36 360 -46 q 406 -55 459 -55 q 548 -55 643 -29 l 658 -83 q 541 -112 453 -112 z m 406 172 q 438 174 465 203 q 492 232 507 284 l 543 536 q 521 549 496 549 q 464 549 434 530 q 403 511 379 478 q 354 445 340 396 q 325 347 325 290 q 325 228 348 198 q 368 172 397 172 q 402 172 406 172 z"},".":{"x_min":0,"x_max":182,"ha":182,"o":"m 60 0 l 60 110 l 137 110 l 137 0 z"},"p":{"x_min":0,"x_max":417,"ha":417,"o":"m 56 -190 l 56 578 l 129 578 l 129 530 q 176 587 240 587 q 272 587 297 574 q 321 561 335 540 q 349 519 357 487 q 366 456 368 426 q 371 395 371 356 l 371 234 q 371 188 367 152 q 363 116 354 85 q 344 54 328 34 q 312 14 288 2 q 264 -9 232 -9 q 176 -9 129 46 l 129 -190 z m 221 49 q 240 49 254 57 q 268 65 276 79 q 285 93 290 117 q 294 141 296 168 q 298 195 298 233 l 298 356 q 298 449 282 489 q 267 529 219 529 q 175 529 129 485 l 129 91 q 169 49 221 49 z"},"X":{"x_min":0,"x_max":463,"ha":463,"o":"m 14 0 l 189 422 l 16 810 l 86 810 l 232 487 l 371 810 l 444 810 l 265 413 l 449 0 l 377 0 l 224 342 l 87 0 z"},"*":{"x_min":0,"x_max":372,"ha":372,"o":"m 118 483 l 73 511 l 160 628 l 35 678 l 54 725 l 174 665 l 166 809 l 223 809 l 213 665 l 333 725 l 351 678 l 227 628 l 314 510 l 269 483 l 193 610 z"},"Y":{"x_min":0,"x_max":469,"ha":469,"o":"m 200 0 l 200 269 l 17 810 l 92 810 l 237 360 l 377 810 l 452 810 l 274 269 l 274 0 z"},"c":{"x_min":0,"x_max":389,"ha":389,"o":"m 200 -9 q 160 -9 132 2 q 104 14 87 33 q 70 52 61 83 q 51 113 48 145 q 45 176 45 219 l 45 354 q 45 417 52 459 q 59 500 76 530 q 93 560 123 573 q 153 587 199 587 q 235 587 262 578 q 288 569 304 554 q 321 539 330 515 q 340 491 344 464 q 347 438 347 402 l 347 375 l 279 375 l 279 402 q 279 476 262 504 q 244 532 200 532 q 150 532 134 497 q 118 461 118 366 l 118 204 q 118 115 135 81 q 153 46 201 46 q 221 46 235 52 q 250 58 258 68 q 267 78 271 96 q 276 114 278 135 q 279 155 279 186 l 279 217 l 347 217 l 347 189 q 347 151 344 123 q 341 95 331 69 q 322 43 306 27 q 290 10 263 0 q 236 -9 200 -9 z"},"!":{"x_min":0,"x_max":201,"ha":201,"o":"m 61 0 l 61 87 l 139 87 l 139 0 z m 87 174 l 62 810 l 140 810 l 113 174 z"},"/":{"x_min":0,"x_max":344,"ha":344,"o":"m 24 0 l 255 810 l 319 810 l 89 0 z"},"[":{"x_min":0,"x_max":302,"ha":302,"o":"m 70 -160 l 70 810 l 245 810 l 245 769 l 144 769 l 144 -119 l 245 -119 l 245 -160 z"},"6":{"x_min":0,"x_max":491,"ha":491,"o":"m 253 -10 q 66 -10 66 244 l 66 567 q 66 818 253 818 q 344 818 389 771 q 434 725 435 630 q 435 630 435 623 q 435 615 435 615 l 363 615 q 363 692 338 725 q 313 758 255 758 q 139 758 139 583 l 139 431 q 160 450 195 464 q 230 479 270 479 q 367 479 406 422 q 445 366 445 237 q 445 -10 253 -10 z m 253 51 q 313 51 342 92 q 370 132 370 223 q 370 259 369 284 q 367 309 363 333 q 359 357 351 372 q 343 387 330 399 q 317 411 298 416 q 279 421 253 421 q 221 421 189 407 q 157 392 139 375 l 139 235 q 139 138 167 95 q 194 51 253 51 z"},"r":{"x_min":0,"x_max":298,"ha":298,"o":"m 62 0 l 62 578 l 135 578 l 135 499 q 161 542 197 563 q 232 584 268 584 q 277 584 281 584 l 281 505 q 265 511 246 511 q 175 511 135 444 l 135 0 z"},"2":{"x_min":0,"x_max":485,"ha":485,"o":"m 49 0 l 49 54 l 267 388 q 271 394 283 412 q 295 430 299 436 q 303 442 312 459 q 322 475 326 483 q 330 491 337 506 q 344 521 347 532 q 350 543 354 558 q 358 573 359 587 q 360 602 360 618 q 360 684 333 720 q 306 757 252 757 q 216 757 191 745 q 166 732 152 708 q 139 684 134 655 q 128 626 128 588 l 128 570 l 55 570 l 55 590 q 55 704 102 761 q 148 818 249 818 q 339 818 386 765 q 434 711 434 613 q 434 584 428 556 q 422 527 415 506 q 407 485 392 457 q 376 429 367 414 q 357 398 337 369 l 135 62 l 416 62 l 416 0 z"},"{":{"x_min":0,"x_max":258,"ha":258,"o":"m 238 -165 q 211 -165 193 -164 q 175 -163 159 -158 q 143 -153 134 -148 q 124 -144 116 -131 q 109 -118 105 -106 q 102 -94 99 -70 q 97 -45 97 -23 q 96 -1 96 37 l 96 166 q 96 209 94 233 q 92 258 85 274 q 79 290 68 295 q 57 300 38 300 l 38 357 q 57 357 68 362 q 79 368 85 384 q 92 399 94 424 q 96 448 96 491 l 96 616 q 96 654 97 676 q 97 698 99 722 q 102 746 105 758 q 109 770 116 783 q 124 796 134 801 q 143 806 159 811 q 175 815 193 816 q 211 817 238 817 l 238 763 q 189 763 180 742 q 171 721 171 616 l 171 476 q 171 426 165 395 q 158 365 146 350 q 133 334 112 329 q 133 323 146 308 q 158 292 165 262 q 171 231 171 182 l 171 37 q 171 -68 180 -89 q 189 -110 238 -110 z"},"9":{"x_min":0,"x_max":491,"ha":491,"o":"m 250 -10 q 67 -10 64 179 l 64 194 l 137 194 q 137 116 162 83 q 187 51 250 51 q 305 51 332 91 q 360 131 360 226 l 360 378 q 343 358 309 344 q 276 331 229 331 q 132 331 93 387 q 55 443 55 572 q 55 818 248 818 q 434 818 434 565 l 434 242 q 434 -10 250 -10 z m 247 387 q 317 387 360 434 l 360 574 q 360 671 333 714 q 307 757 248 757 q 188 757 158 715 q 129 673 129 586 q 129 549 131 525 q 132 500 136 476 q 141 451 148 436 q 156 421 169 409 q 182 397 201 392 q 220 387 247 387 z"}," ":{"x_min":0,"x_max":204,"ha":204,"o":""},"I":{"x_min":0,"x_max":222,"ha":222,"o":"m 74 0 l 74 810 l 149 810 l 149 0 z"},"H":{"x_min":0,"x_max":549,"ha":549,"o":"m 70 0 l 70 810 l 147 810 l 147 451 l 402 451 l 402 810 l 479 810 l 479 0 l 402 0 l 402 395 l 147 395 l 147 0 z"},"4":{"x_min":0,"x_max":492,"ha":492,"o":"m 294 0 l 294 235 l 50 235 l 50 312 l 279 810 l 368 810 l 368 304 l 459 304 l 459 235 l 368 235 l 368 0 z m 125 304 l 294 304 l 294 711 z"},"~":{"x_min":0,"x_max":407,"ha":407,"o":"m 272 375 q 250 375 200 402 q 151 430 134 430 q 109 430 65 390 l 39 424 q 63 451 90 469 q 118 487 139 487 q 160 487 209 460 q 258 433 275 433 q 284 433 295 438 q 306 443 315 449 q 324 456 342 470 l 368 436 q 310 375 272 375 z"},"D":{"x_min":0,"x_max":521,"ha":521,"o":"m 147 57 l 249 57 q 287 57 313 68 q 339 78 354 94 q 369 111 377 139 q 385 167 387 195 q 390 222 390 262 l 390 564 q 390 603 386 630 q 383 658 374 682 q 365 706 349 720 q 333 735 308 743 q 282 751 247 751 l 147 751 z m 70 0 l 70 810 l 248 810 q 297 810 335 798 q 373 787 397 767 q 422 747 438 717 q 454 687 460 651 q 467 616 467 572 l 467 250 q 467 191 456 146 q 445 102 421 68 q 396 35 355 17 q 313 0 253 0 z"},"^":{"x_min":0,"x_max":395,"ha":395,"o":"m 29 511 l 159 810 l 236 810 l 366 511 l 300 511 l 197 759 l 95 511 z"},"0":{"x_min":0,"x_max":492,"ha":492,"o":"m 365 223 l 365 586 q 365 625 359 655 q 354 685 341 710 q 328 734 304 747 q 280 760 246 760 q 212 760 189 747 q 165 734 152 710 q 139 686 133 656 q 127 625 127 586 l 127 223 q 127 49 246 49 q 365 49 365 223 z m 246 -10 q 53 -10 53 229 l 53 581 q 53 818 246 818 q 439 818 439 581 l 439 229 q 439 -10 246 -10 z"},"F":{"x_min":0,"x_max":386,"ha":386,"o":"m 70 0 l 70 810 l 362 810 l 362 752 l 147 752 l 147 448 l 326 448 l 326 392 l 147 392 l 147 0 z"},"`":{"x_min":0,"x_max":235,"ha":235,"o":"m 145 614 l 53 810 l 126 810 l 182 614 z"},"k":{"x_min":0,"x_max":400,"ha":400,"o":"m 57 1 l 57 811 l 130 811 l 130 296 l 323 578 l 401 578 l 255 355 l 394 0 l 320 0 l 199 314 l 130 219 l 130 1 z"},"u":{"x_min":0,"x_max":412,"ha":412,"o":"m 141 -9 q 97 -9 74 23 q 51 56 51 115 l 51 578 l 125 578 l 125 130 q 125 86 138 67 q 151 49 180 49 q 229 49 282 105 l 282 578 l 355 578 l 355 0 l 282 0 l 282 64 q 218 -9 141 -9 z"},"]":{"x_min":0,"x_max":285,"ha":285,"o":"m 41 -159 l 41 -119 l 141 -119 l 141 769 l 41 769 l 41 810 l 215 810 l 215 -159 z"},"U":{"x_min":0,"x_max":537,"ha":537,"o":"m 269 -10 q 221 -10 184 1 q 147 12 125 32 q 102 52 87 82 q 73 111 68 145 q 62 178 62 221 l 62 810 l 136 810 l 136 219 q 136 188 139 165 q 143 141 151 119 q 160 97 175 83 q 189 68 213 60 q 237 51 269 51 q 307 51 334 64 q 360 76 375 100 q 389 124 396 152 q 402 181 402 219 l 402 810 l 475 810 l 475 221 q 475 179 469 145 q 463 111 449 82 q 434 52 411 32 q 388 12 352 1 q 316 -10 269 -10 z"},"o":{"x_min":0,"x_max":398,"ha":398,"o":"m 199 46 q 221 46 236 54 q 251 62 260 74 q 269 86 273 109 q 277 131 279 152 q 280 172 280 205 l 280 373 q 280 406 279 426 q 277 447 273 469 q 269 492 260 504 q 251 516 236 524 q 221 532 199 532 q 181 532 167 527 q 153 522 145 511 q 136 500 130 488 q 125 476 122 456 q 120 436 119 418 q 118 400 118 373 l 118 205 q 118 178 119 160 q 120 143 122 123 q 125 103 130 90 q 136 78 145 67 q 153 56 167 51 q 181 46 199 46 z m 45 209 l 45 369 q 45 479 79 533 q 113 587 199 587 q 286 587 320 533 q 354 480 354 369 l 354 209 q 354 154 346 115 q 339 77 322 48 q 304 19 274 5 q 244 -9 199 -9 q 155 -9 125 5 q 94 19 77 48 q 60 77 52 115 q 45 154 45 209 z"},"N":{"x_min":0,"x_max":520,"ha":520,"o":"m 70 0 l 70 810 l 126 810 l 384 181 l 384 810 l 450 810 l 450 0 l 396 0 l 136 636 l 136 0 z"},"+":{"x_min":0,"x_max":383,"ha":383,"o":"m 162 230 l 162 388 l 23 388 l 23 443 l 162 443 l 162 600 l 218 600 l 218 443 l 360 443 l 360 388 l 218 388 l 218 230 z"},"G":{"x_min":0,"x_max":520,"ha":520,"o":"m 254 -11 q 198 -11 158 7 q 119 25 96 60 q 74 95 64 141 q 54 186 54 247 l 54 563 q 54 625 64 669 q 73 714 96 749 q 118 783 159 801 q 200 818 259 818 q 364 818 409 760 q 455 702 455 585 l 455 557 l 383 557 l 383 585 q 383 676 357 717 q 331 758 260 758 q 227 758 204 748 q 180 739 166 723 q 152 708 144 683 q 136 658 134 632 q 131 606 131 570 l 131 238 q 131 191 136 158 q 142 126 156 101 q 170 76 197 63 q 223 51 261 51 q 333 51 360 98 q 388 144 388 240 l 388 335 l 269 335 l 269 392 l 458 392 l 458 0 l 409 0 l 400 92 q 366 -11 254 -11 z"},"q":{"x_min":0,"x_max":414,"ha":414,"o":"m 285 -190 l 285 42 q 242 -9 187 -9 q 112 -9 79 47 q 47 103 47 233 l 47 340 q 47 388 50 424 q 54 460 63 492 q 72 524 87 544 q 103 564 126 575 q 150 587 183 587 q 242 586 285 536 l 285 578 l 358 578 l 358 -190 z m 201 49 q 245 49 285 87 l 285 488 q 241 529 199 529 q 153 529 136 490 q 120 452 120 364 l 120 228 q 120 133 137 91 q 153 49 201 49 z"},"d":{"x_min":0,"x_max":413,"ha":413,"o":"m 185 -9 q 110 -9 77 47 q 45 103 45 233 l 45 340 q 45 388 48 424 q 52 460 61 492 q 70 524 85 544 q 101 564 125 575 q 148 587 181 587 q 238 586 283 537 l 283 810 l 356 810 l 356 0 l 283 0 l 283 41 q 239 -9 185 -9 z m 199 49 q 242 49 283 87 l 283 488 q 239 529 197 529 q 151 529 135 490 q 118 452 118 364 l 118 228 q 118 133 135 91 q 151 49 199 49 z"},"1":{"x_min":0,"x_max":427,"ha":427,"o":"m 214 0 l 214 712 q 198 689 88 659 l 88 718 q 123 728 163 752 q 204 776 228 810 l 287 810 l 287 0 z"},"5":{"x_min":0,"x_max":484,"ha":484,"o":"m 249 -9 q 153 -9 111 45 q 68 100 68 209 l 141 209 q 141 130 166 90 q 191 49 251 49 q 316 49 340 99 q 364 148 364 256 q 364 367 339 413 q 314 458 252 458 q 188 458 147 390 l 86 390 l 86 810 l 401 810 l 400 741 l 151 741 l 147 460 q 190 514 271 514 q 358 514 397 450 q 436 387 436 265 q 436 128 392 60 q 348 -9 249 -9 z"}}}
